<?xml version="1.0" encoding="UTF-8" standalone="no"?>
<!-- Created with Inkscape (http://www.inkscape.org/) -->

<svg
   width="6.5475726mm"
   height="2.8222301mm"
   viewBox="0 0 6.5475726 2.8222301"
   version="1.1"
   id="svg5"
   inkscape:version="1.2.1 (9c6d41e410, 2022-07-14)"
   sodipodi:docname="button-north.svg"
   xmlns:inkscape="http://www.inkscape.org/namespaces/inkscape"
   xmlns:sodipodi="http://sodipodi.sourceforge.net/DTD/sodipodi-0.dtd"
   xmlns="http://www.w3.org/2000/svg"
   xmlns:svg="http://www.w3.org/2000/svg">
  <sodipodi:namedview
     id="namedview7"
     pagecolor="#ffffff"
     bordercolor="#999999"
     borderopacity="1"
     inkscape:showpageshadow="0"
     inkscape:pageopacity="0"
     inkscape:pagecheckerboard="0"
     inkscape:deskcolor="#d1d1d1"
     inkscape:document-units="mm"
     showgrid="false"
     inkscape:zoom="22.627417"
     inkscape:cx="12.308077"
     inkscape:cy="7.6013979"
     inkscape:window-width="1920"
     inkscape:window-height="1017"
     inkscape:window-x="-8"
     inkscape:window-y="-8"
     inkscape:window-maximized="1"
     inkscape:current-layer="layer1" />
  <defs
     id="defs2" />
  <g
     inkscape:label="Layer 1"
     inkscape:groupmode="layer"
     id="layer1"
     transform="translate(-15.361152,-84.236182)">
    <g
       aria-label="⇆ ↥ "
       id="text302"
       style="font-size:2.82223px;font-family:PromptFont;-inkscape-font-specification:'PromptFont, Normal';stroke-width:0.264583">
      <path
         d="m 16.772267,85.074385 c -0.318912,0 -0.575735,0.256823 -0.575735,0.572912 0,0.318912 0.256823,0.575735 0.575735,0.575735 0.31609,0 0.572912,-0.256823 0.572912,-0.575735 0,-0.316089 -0.256822,-0.572912 -0.572912,-0.572912 z m -0.29069,0.296334 h 0.412046 c 0.09313,0 0.141111,0.03951 0.141111,0.115711 v 0.115712 c 0,0.06773 -0.03669,0.104422 -0.112889,0.112889 l 0.138289,0.211667 h -0.180623 l -0.138289,-0.211667 h -0.09313 v 0.211667 h -0.166512 z m 0.166512,0.1016 v 0.143934 h 0.189089 c 0.01976,0 0.03104,-0.0085 0.03104,-0.0254 v -0.09596 c 0,-0.01411 -0.01129,-0.02258 -0.03104,-0.02258 z m 0.124178,-0.651935 c -0.457202,0 -0.829736,0.372534 -0.829736,0.826913 0,0.457202 0.372534,0.829736 0.829736,0.829736 0.454379,0 0.826913,-0.372534 0.826913,-0.829736 0,-0.454379 -0.372534,-0.826913 -0.826913,-0.826913 z m 0,0.163689 c 0.364067,0 0.663224,0.299157 0.663224,0.663224 0,0.36689 -0.299157,0.666047 -0.663224,0.666047 -0.36689,0 -0.666047,-0.299157 -0.666047,-0.666047 0,-0.364067 0.299157,-0.663224 0.666047,-0.663224 z m -0.795869,-0.04233 -0.615246,0.705557 0.615246,0.70838 v -0.0056 c -0.118534,-0.174979 -0.211667,-0.491068 -0.21449,-0.702736 0.0028,-0.208845 0.09596,-0.524935 0.21449,-0.699913 z m 1.588915,0 v 0.0056 c 0.118534,0.174978 0.211668,0.491068 0.21449,0.699913 -0.0028,0.211668 -0.09596,0.527757 -0.21449,0.702736 v 0.0056 l 0.618069,-0.70838 z"
         id="path316" />
      <path
         d="m 20.497609,84.236182 c -0.296334,0 -0.533401,0.23989 -0.533401,0.533402 0,0.296334 0.237067,0.533401 0.533401,0.533401 0.293512,0 0.53058,-0.237067 0.53058,-0.533401 0,-0.293512 -0.237068,-0.533402 -0.53058,-0.533402 z m 1.411116,1.411115 c 0,-0.293512 -0.23989,-0.530579 -0.533402,-0.530579 -0.296334,0 -0.533401,0.237067 -0.533401,0.530579 0,0.296334 0.237067,0.533402 0.533401,0.533402 0.293512,0 0.533402,-0.237068 0.533402,-0.533402 z m -0.107245,0 c 0,0.237068 -0.191912,0.428979 -0.426157,0.428979 -0.237067,0 -0.428979,-0.191911 -0.428979,-0.428979 0,-0.234245 0.191912,-0.426156 0.428979,-0.426156 0.234245,0 0.426157,0.191911 0.426157,0.426156 z m -1.651005,0 c 0,-0.293512 -0.237067,-0.530579 -0.533401,-0.530579 -0.293512,0 -0.53058,0.237067 -0.53058,0.530579 0,0.296334 0.237068,0.533402 0.53058,0.533402 0.296334,0 0.533401,-0.237068 0.533401,-0.533402 z m -0.104422,0 c 0,0.237068 -0.191912,0.428979 -0.428979,0.428979 -0.234245,0 -0.426157,-0.191911 -0.426157,-0.428979 0,-0.234245 0.191912,-0.426156 0.426157,-0.426156 0.237067,0 0.428979,0.191911 0.428979,0.426156 z m 0.982136,0.880536 c 0,-0.296334 -0.237068,-0.533401 -0.53058,-0.533401 -0.296334,0 -0.533401,0.237067 -0.533401,0.533401 0,0.293512 0.237067,0.530579 0.533401,0.530579 0.293512,0 0.53058,-0.237067 0.53058,-0.530579 z m -0.104423,0 c 0,0.234245 -0.191911,0.426157 -0.426157,0.426157 -0.237067,0 -0.428978,-0.191912 -0.428978,-0.426157 0,-0.237067 0.191911,-0.428979 0.428978,-0.428979 0.234246,0 0.426157,0.191912 0.426157,0.428979 z"
         id="path318" />
    </g>
  </g>
</svg>
