<?xml version="1.0" encoding="UTF-8" standalone="no"?>
<!-- Created with Inkscape (http://www.inkscape.org/) -->

<svg
   width="2.8222311mm"
   height="2.8222301mm"
   viewBox="0 0 2.822231 2.8222301"
   version="1.1"
   id="svg5"
   xmlns="http://www.w3.org/2000/svg"
   xmlns:svg="http://www.w3.org/2000/svg">
  <defs
     id="defs2" />
  <g
     id="layer1"
     transform="translate(-19.086494,-84.236182)">
    <g
       aria-label="⇆ ↥ "
       id="text302"
       style="font-size:2.82223px;font-family:PromptFont;-inkscape-font-specification:'PromptFont, Normal';stroke-width:0.264583">
      <path
         d="m 20.497609,84.236182 c -0.296334,0 -0.533401,0.23989 -0.533401,0.533402 0,0.296334 0.237067,0.533401 0.533401,0.533401 0.293512,0 0.53058,-0.237067 0.53058,-0.533401 0,-0.293512 -0.237068,-0.533402 -0.53058,-0.533402 z m 1.411116,1.411115 c 0,-0.293512 -0.23989,-0.530579 -0.533402,-0.530579 -0.296334,0 -0.533401,0.237067 -0.533401,0.530579 0,0.296334 0.237067,0.533402 0.533401,0.533402 0.293512,0 0.533402,-0.237068 0.533402,-0.533402 z m -0.107245,0 c 0,0.237068 -0.191912,0.428979 -0.426157,0.428979 -0.237067,0 -0.428979,-0.191911 -0.428979,-0.428979 0,-0.234245 0.191912,-0.426156 0.428979,-0.426156 0.234245,0 0.426157,0.191911 0.426157,0.426156 z m -1.651005,0 c 0,-0.293512 -0.237067,-0.530579 -0.533401,-0.530579 -0.293512,0 -0.53058,0.237067 -0.53058,0.530579 0,0.296334 0.237068,0.533402 0.53058,0.533402 0.296334,0 0.533401,-0.237068 0.533401,-0.533402 z m -0.104422,0 c 0,0.237068 -0.191912,0.428979 -0.428979,0.428979 -0.234245,0 -0.426157,-0.191911 -0.426157,-0.428979 0,-0.234245 0.191912,-0.426156 0.426157,-0.426156 0.237067,0 0.428979,0.191911 0.428979,0.426156 z m 0.982136,0.880536 c 0,-0.296334 -0.237068,-0.533401 -0.53058,-0.533401 -0.296334,0 -0.533401,0.237067 -0.533401,0.533401 0,0.293512 0.237067,0.530579 0.533401,0.530579 0.293512,0 0.53058,-0.237067 0.53058,-0.530579 z m -0.104423,0 c 0,0.234245 -0.191911,0.426157 -0.426157,0.426157 -0.237067,0 -0.428978,-0.191912 -0.428978,-0.426157 0,-0.237067 0.191911,-0.428979 0.428978,-0.428979 0.234246,0 0.426157,0.191912 0.426157,0.428979 z"
         id="path318" />
    </g>
  </g>
</svg>
